<svg width="25" height="8" viewBox="0 0 25 8" fill="none" xmlns="http://www.w3.org/2000/svg">
<path d="M5.4834 3.95996V6.5625C5.39551 6.69271 5.25553 6.83919 5.06348 7.00195C4.87142 7.16146 4.60612 7.30143 4.26758 7.42188C3.93229 7.53906 3.49935 7.59766 2.96875 7.59766C2.53581 7.59766 2.13704 7.52279 1.77246 7.37305C1.41113 7.22005 1.09701 6.9987 0.830078 6.70898C0.566406 6.41602 0.361328 6.0612 0.214844 5.64453C0.0716146 5.22461 0 4.74935 0 4.21875V3.66699C0 3.13639 0.061849 2.66276 0.185547 2.24609C0.3125 1.82943 0.498047 1.47624 0.742188 1.18652C0.986328 0.893555 1.28581 0.672201 1.64062 0.522461C1.99544 0.369466 2.40234 0.292969 2.86133 0.292969C3.40495 0.292969 3.85905 0.38737 4.22363 0.576172C4.59147 0.761719 4.87793 1.01888 5.08301 1.34766C5.29134 1.67643 5.4248 2.05078 5.4834 2.4707H4.54102C4.4987 2.21354 4.41406 1.97917 4.28711 1.76758C4.16341 1.55599 3.986 1.38672 3.75488 1.25977C3.52376 1.12956 3.22591 1.06445 2.86133 1.06445C2.53255 1.06445 2.24772 1.12467 2.00684 1.24512C1.76595 1.36556 1.56738 1.53809 1.41113 1.7627C1.25488 1.9873 1.1377 2.25911 1.05957 2.57812C0.984701 2.89714 0.947266 3.25684 0.947266 3.65723V4.21875C0.947266 4.62891 0.994466 4.99512 1.08887 5.31738C1.18652 5.63965 1.32487 5.91471 1.50391 6.14258C1.68294 6.36719 1.89616 6.53809 2.14355 6.65527C2.39421 6.77246 2.6709 6.83105 2.97363 6.83105C3.30892 6.83105 3.58073 6.80339 3.78906 6.74805C3.9974 6.68945 4.16016 6.62109 4.27734 6.54297C4.39453 6.46159 4.48405 6.38509 4.5459 6.31348V4.72168H2.90039V3.95996H5.4834ZM7.80762 3.2666V7.5H6.89941V2.2168H7.75879L7.80762 3.2666ZM7.62207 4.6582L7.20215 4.64355C7.2054 4.28223 7.2526 3.94857 7.34375 3.64258C7.4349 3.33333 7.56999 3.06478 7.74902 2.83691C7.92806 2.60905 8.15104 2.43327 8.41797 2.30957C8.6849 2.18262 8.99414 2.11914 9.3457 2.11914C9.5931 2.11914 9.82096 2.15495 10.0293 2.22656C10.2376 2.29492 10.4183 2.40397 10.5713 2.55371C10.7243 2.70345 10.8431 2.89551 10.9277 3.12988C11.0124 3.36426 11.0547 3.64746 11.0547 3.97949V7.5H10.1514V4.02344C10.1514 3.74674 10.1042 3.52539 10.0098 3.35938C9.91862 3.19336 9.78841 3.07292 9.61914 2.99805C9.44987 2.91992 9.2513 2.88086 9.02344 2.88086C8.75651 2.88086 8.53353 2.92806 8.35449 3.02246C8.17546 3.11686 8.03223 3.24707 7.9248 3.41309C7.81738 3.5791 7.73926 3.76953 7.69043 3.98438C7.64486 4.19596 7.62207 4.42057 7.62207 4.6582ZM11.0449 4.16016L10.4395 4.3457C10.4427 4.05599 10.4899 3.77767 10.5811 3.51074C10.6755 3.24382 10.8105 3.00618 10.9863 2.79785C11.1654 2.58952 11.3851 2.42513 11.6455 2.30469C11.9059 2.18099 12.2038 2.11914 12.5391 2.11914C12.8223 2.11914 13.0729 2.15658 13.291 2.23145C13.5124 2.30632 13.6979 2.42188 13.8477 2.57812C14.0007 2.73112 14.1162 2.92806 14.1943 3.16895C14.2725 3.40983 14.3115 3.69629 14.3115 4.02832V7.5H13.4033V4.01855C13.4033 3.72233 13.3561 3.49284 13.2617 3.33008C13.1706 3.16406 13.0404 3.0485 12.8711 2.9834C12.7051 2.91504 12.5065 2.88086 12.2754 2.88086C12.0768 2.88086 11.901 2.91504 11.748 2.9834C11.5951 3.05176 11.4665 3.14616 11.3623 3.2666C11.2581 3.38379 11.1784 3.51888 11.123 3.67188C11.071 3.82487 11.0449 3.98763 11.0449 4.16016ZM18.7939 6.59668V3.87695C18.7939 3.66862 18.7516 3.48796 18.667 3.33496C18.5856 3.17871 18.4619 3.05827 18.2959 2.97363C18.1299 2.889 17.9248 2.84668 17.6807 2.84668C17.4528 2.84668 17.2526 2.88574 17.0801 2.96387C16.9108 3.04199 16.7773 3.14453 16.6797 3.27148C16.5853 3.39844 16.5381 3.53516 16.5381 3.68164H15.6348C15.6348 3.49284 15.6836 3.30566 15.7812 3.12012C15.8789 2.93457 16.0189 2.76693 16.2012 2.61719C16.3867 2.46419 16.6081 2.34375 16.8652 2.25586C17.1257 2.16471 17.4154 2.11914 17.7344 2.11914C18.1185 2.11914 18.457 2.18424 18.75 2.31445C19.0462 2.44466 19.2773 2.6416 19.4434 2.90527C19.6126 3.16569 19.6973 3.49284 19.6973 3.88672V6.34766C19.6973 6.52344 19.7119 6.71061 19.7412 6.90918C19.7738 7.10775 19.821 7.27865 19.8828 7.42188V7.5H18.9404C18.8949 7.39583 18.859 7.25749 18.833 7.08496C18.807 6.90918 18.7939 6.74642 18.7939 6.59668ZM18.9502 4.29688L18.96 4.93164H18.0469C17.7897 4.93164 17.5602 4.9528 17.3584 4.99512C17.1566 5.03418 16.9873 5.0944 16.8506 5.17578C16.7139 5.25716 16.6097 5.3597 16.5381 5.4834C16.4665 5.60384 16.4307 5.74544 16.4307 5.9082C16.4307 6.07422 16.4681 6.22559 16.543 6.3623C16.6178 6.49902 16.7301 6.60807 16.8799 6.68945C17.0329 6.76758 17.2201 6.80664 17.4414 6.80664C17.7181 6.80664 17.9622 6.74805 18.1738 6.63086C18.3854 6.51367 18.5531 6.37044 18.6768 6.20117C18.8037 6.0319 18.8721 5.86751 18.8818 5.70801L19.2676 6.14258C19.2448 6.2793 19.1829 6.43066 19.082 6.59668C18.9811 6.7627 18.846 6.9222 18.6768 7.0752C18.5107 7.22493 18.3122 7.35026 18.0811 7.45117C17.8532 7.54883 17.596 7.59766 17.3096 7.59766C16.9515 7.59766 16.6374 7.52767 16.3672 7.3877C16.1003 7.24772 15.8919 7.06055 15.7422 6.82617C15.5957 6.58854 15.5225 6.32324 15.5225 6.03027C15.5225 5.74707 15.5778 5.49805 15.6885 5.2832C15.7992 5.0651 15.9587 4.88444 16.167 4.74121C16.3753 4.59473 16.626 4.48405 16.9189 4.40918C17.2119 4.33431 17.5391 4.29688 17.9004 4.29688H18.9502ZM22.0996 2.2168V7.5H21.1914V2.2168H22.0996ZM21.123 0.81543C21.123 0.668945 21.167 0.545247 21.2549 0.444336C21.346 0.343424 21.4795 0.292969 21.6553 0.292969C21.8278 0.292969 21.9596 0.343424 22.0508 0.444336C22.1452 0.545247 22.1924 0.668945 22.1924 0.81543C22.1924 0.955404 22.1452 1.07585 22.0508 1.17676C21.9596 1.27441 21.8278 1.32324 21.6553 1.32324C21.4795 1.32324 21.346 1.27441 21.2549 1.17676C21.167 1.07585 21.123 0.955404 21.123 0.81543ZM24.5312 0V7.5H23.623V0H24.5312Z" fill="black"/>
</svg>
