<svg width="196" height="62" viewBox="0 0 196 62" fill="none" xmlns="http://www.w3.org/2000/svg">
<path d="M35.0938 25.3438V42C34.5312 42.8333 33.6354 43.7708 32.4062 44.8125C31.1771 45.8333 29.4792 46.7292 27.3125 47.5C25.1667 48.25 22.3958 48.625 19 48.625C16.2292 48.625 13.6771 48.1458 11.3438 47.1875C9.03125 46.2083 7.02083 44.7917 5.3125 42.9375C3.625 41.0625 2.3125 38.7917 1.375 36.125C0.458333 33.4375 0 30.3958 0 27V23.4688C0 20.0729 0.395833 17.0417 1.1875 14.375C2 11.7083 3.1875 9.44792 4.75 7.59375C6.3125 5.71875 8.22917 4.30208 10.5 3.34375C12.7708 2.36458 15.375 1.875 18.3125 1.875C21.7917 1.875 24.6979 2.47917 27.0312 3.6875C29.3854 4.875 31.2188 6.52083 32.5312 8.625C33.8646 10.7292 34.7188 13.125 35.0938 15.8125H29.0625C28.7917 14.1667 28.25 12.6667 27.4375 11.3125C26.6458 9.95833 25.5104 8.875 24.0312 8.0625C22.5521 7.22917 20.6458 6.8125 18.3125 6.8125C16.2083 6.8125 14.3854 7.19792 12.8438 7.96875C11.3021 8.73958 10.0312 9.84375 9.03125 11.2812C8.03125 12.7188 7.28125 14.4583 6.78125 16.5C6.30208 18.5417 6.0625 20.8438 6.0625 23.4062V27C6.0625 29.625 6.36458 31.9688 6.96875 34.0312C7.59375 36.0938 8.47917 37.8542 9.625 39.3125C10.7708 40.75 12.1354 41.8438 13.7188 42.5938C15.3229 43.3438 17.0938 43.7188 19.0312 43.7188C21.1771 43.7188 22.9167 43.5417 24.25 43.1875C25.5833 42.8125 26.625 42.375 27.375 41.875C28.125 41.3542 28.6979 40.8646 29.0938 40.4062V30.2188H18.5625V25.3438H35.0938Z" fill="#196EDD"/>
<path d="M42.6875 31.4688V30.75C42.6875 28.3125 43.0417 26.0521 43.75 23.9688C44.4583 21.8646 45.4792 20.0417 46.8125 18.5C48.1458 16.9375 49.7604 15.7292 51.6562 14.875C53.5521 14 55.6771 13.5625 58.0312 13.5625C60.4062 13.5625 62.5417 14 64.4375 14.875C66.3542 15.7292 67.9792 16.9375 69.3125 18.5C70.6667 20.0417 71.6979 21.8646 72.4062 23.9688C73.1146 26.0521 73.4688 28.3125 73.4688 30.75V31.4688C73.4688 33.9062 73.1146 36.1667 72.4062 38.25C71.6979 40.3333 70.6667 42.1562 69.3125 43.7188C67.9792 45.2604 66.3646 46.4688 64.4688 47.3438C62.5938 48.1979 60.4688 48.625 58.0938 48.625C55.7188 48.625 53.5833 48.1979 51.6875 47.3438C49.7917 46.4688 48.1667 45.2604 46.8125 43.7188C45.4792 42.1562 44.4583 40.3333 43.75 38.25C43.0417 36.1667 42.6875 33.9062 42.6875 31.4688ZM48.4688 30.75V31.4688C48.4688 33.1562 48.6667 34.75 49.0625 36.25C49.4583 37.7292 50.0521 39.0417 50.8438 40.1875C51.6562 41.3333 52.6667 42.2396 53.875 42.9062C55.0833 43.5521 56.4896 43.875 58.0938 43.875C59.6771 43.875 61.0625 43.5521 62.25 42.9062C63.4583 42.2396 64.4583 41.3333 65.25 40.1875C66.0417 39.0417 66.6354 37.7292 67.0312 36.25C67.4479 34.75 67.6562 33.1562 67.6562 31.4688V30.75C67.6562 29.0833 67.4479 27.5104 67.0312 26.0312C66.6354 24.5312 66.0312 23.2083 65.2188 22.0625C64.4271 20.8958 63.4271 19.9792 62.2188 19.3125C61.0312 18.6458 59.6354 18.3125 58.0312 18.3125C56.4479 18.3125 55.0521 18.6458 53.8438 19.3125C52.6562 19.9792 51.6562 20.8958 50.8438 22.0625C50.0521 23.2083 49.4583 24.5312 49.0625 26.0312C48.6667 27.5104 48.4688 29.0833 48.4688 30.75Z" fill="#ED272A"/>
<path d="M79.1875 31.4688V30.75C79.1875 28.3125 79.5417 26.0521 80.25 23.9688C80.9583 21.8646 81.9792 20.0417 83.3125 18.5C84.6458 16.9375 86.2604 15.7292 88.1562 14.875C90.0521 14 92.1771 13.5625 94.5312 13.5625C96.9062 13.5625 99.0417 14 100.938 14.875C102.854 15.7292 104.479 16.9375 105.812 18.5C107.167 20.0417 108.198 21.8646 108.906 23.9688C109.615 26.0521 109.969 28.3125 109.969 30.75V31.4688C109.969 33.9062 109.615 36.1667 108.906 38.25C108.198 40.3333 107.167 42.1562 105.812 43.7188C104.479 45.2604 102.865 46.4688 100.969 47.3438C99.0938 48.1979 96.9688 48.625 94.5938 48.625C92.2188 48.625 90.0833 48.1979 88.1875 47.3438C86.2917 46.4688 84.6667 45.2604 83.3125 43.7188C81.9792 42.1562 80.9583 40.3333 80.25 38.25C79.5417 36.1667 79.1875 33.9062 79.1875 31.4688ZM84.9688 30.75V31.4688C84.9688 33.1562 85.1667 34.75 85.5625 36.25C85.9583 37.7292 86.5521 39.0417 87.3438 40.1875C88.1562 41.3333 89.1667 42.2396 90.375 42.9062C91.5833 43.5521 92.9896 43.875 94.5938 43.875C96.1771 43.875 97.5625 43.5521 98.75 42.9062C99.9583 42.2396 100.958 41.3333 101.75 40.1875C102.542 39.0417 103.135 37.7292 103.531 36.25C103.948 34.75 104.156 33.1562 104.156 31.4688V30.75C104.156 29.0833 103.948 27.5104 103.531 26.0312C103.135 24.5312 102.531 23.2083 101.719 22.0625C100.927 20.8958 99.9271 19.9792 98.7188 19.3125C97.5312 18.6458 96.1354 18.3125 94.5312 18.3125C92.9479 18.3125 91.5521 18.6458 90.3438 19.3125C89.1562 19.9792 88.1562 20.8958 87.3438 22.0625C86.5521 23.2083 85.9583 24.5312 85.5625 26.0312C85.1667 27.5104 84.9688 29.0833 84.9688 30.75Z" fill="#FFCD27"/>
<path d="M139.125 14.1875H144.375V47.2812C144.375 50.2604 143.771 52.8021 142.562 54.9062C141.354 57.0104 139.667 58.6042 137.5 59.6875C135.354 60.7917 132.875 61.3438 130.062 61.3438C128.896 61.3438 127.521 61.1562 125.938 60.7812C124.375 60.4271 122.833 59.8125 121.312 58.9375C119.812 58.0833 118.552 56.9271 117.531 55.4688L120.562 52.0312C121.979 53.7396 123.458 54.9271 125 55.5938C126.562 56.2604 128.104 56.5938 129.625 56.5938C131.458 56.5938 133.042 56.25 134.375 55.5625C135.708 54.875 136.74 53.8542 137.469 52.5C138.219 51.1667 138.594 49.5208 138.594 47.5625V21.625L139.125 14.1875ZM115.844 31.4688V30.8125C115.844 28.2292 116.146 25.8854 116.75 23.7812C117.375 21.6562 118.26 19.8333 119.406 18.3125C120.573 16.7917 121.979 15.625 123.625 14.8125C125.271 13.9792 127.125 13.5625 129.188 13.5625C131.312 13.5625 133.167 13.9375 134.75 14.6875C136.354 15.4167 137.708 16.4896 138.812 17.9062C139.938 19.3021 140.823 20.9896 141.469 22.9688C142.115 24.9479 142.562 27.1875 142.812 29.6875V32.5625C142.583 35.0417 142.135 37.2708 141.469 39.25C140.823 41.2292 139.938 42.9167 138.812 44.3125C137.708 45.7083 136.354 46.7812 134.75 47.5312C133.146 48.2604 131.271 48.625 129.125 48.625C127.104 48.625 125.271 48.1979 123.625 47.3438C122 46.4896 120.604 45.2917 119.438 43.75C118.271 42.2083 117.375 40.3958 116.75 38.3125C116.146 36.2083 115.844 33.9271 115.844 31.4688ZM121.625 30.8125V31.4688C121.625 33.1562 121.792 34.7396 122.125 36.2188C122.479 37.6979 123.01 39 123.719 40.125C124.448 41.25 125.375 42.1354 126.5 42.7812C127.625 43.4062 128.969 43.7188 130.531 43.7188C132.448 43.7188 134.031 43.3125 135.281 42.5C136.531 41.6875 137.521 40.6146 138.25 39.2812C139 37.9479 139.583 36.5 140 34.9375V27.4062C139.771 26.2604 139.417 25.1562 138.938 24.0938C138.479 23.0104 137.875 22.0521 137.125 21.2188C136.396 20.3646 135.49 19.6875 134.406 19.1875C133.323 18.6875 132.052 18.4375 130.594 18.4375C129.01 18.4375 127.646 18.7708 126.5 19.4375C125.375 20.0833 124.448 20.9792 123.719 22.125C123.01 23.25 122.479 24.5625 122.125 26.0625C121.792 27.5417 121.625 29.125 121.625 30.8125Z" fill="#196EDD"/>
<path d="M159.438 0V48H153.625V0H159.438Z" fill="#358319"/>
<path d="M182.75 48.625C180.396 48.625 178.26 48.2292 176.344 47.4375C174.448 46.625 172.812 45.4896 171.438 44.0312C170.083 42.5729 169.042 40.8438 168.312 38.8438C167.583 36.8438 167.219 34.6562 167.219 32.2812V30.9688C167.219 28.2188 167.625 25.7708 168.438 23.625C169.25 21.4583 170.354 19.625 171.75 18.125C173.146 16.625 174.729 15.4896 176.5 14.7188C178.271 13.9479 180.104 13.5625 182 13.5625C184.417 13.5625 186.5 13.9792 188.25 14.8125C190.021 15.6458 191.469 16.8125 192.594 18.3125C193.719 19.7917 194.552 21.5417 195.094 23.5625C195.635 25.5625 195.906 27.75 195.906 30.125V32.7188H170.656V28H190.125V27.5625C190.042 26.0625 189.729 24.6042 189.188 23.1875C188.667 21.7708 187.833 20.6042 186.688 19.6875C185.542 18.7708 183.979 18.3125 182 18.3125C180.688 18.3125 179.479 18.5938 178.375 19.1562C177.271 19.6979 176.323 20.5104 175.531 21.5938C174.74 22.6771 174.125 24 173.688 25.5625C173.25 27.125 173.031 28.9271 173.031 30.9688V32.2812C173.031 33.8854 173.25 35.3958 173.688 36.8125C174.146 38.2083 174.802 39.4375 175.656 40.5C176.531 41.5625 177.583 42.3958 178.812 43C180.062 43.6042 181.479 43.9062 183.062 43.9062C185.104 43.9062 186.833 43.4896 188.25 42.6562C189.667 41.8229 190.906 40.7083 191.969 39.3125L195.469 42.0938C194.74 43.1979 193.812 44.25 192.688 45.25C191.562 46.25 190.177 47.0625 188.531 47.6875C186.906 48.3125 184.979 48.625 182.75 48.625Z" fill="#ED272A"/>
</svg>
