<svg width="47" height="58" viewBox="0 0 47 58" fill="none" xmlns="http://www.w3.org/2000/svg">
<circle cx="23.5" cy="18" r="18" fill="#E1E3E1"/>
<path d="M4.77539 53.8633V50.5938C4.77539 50.293 4.71289 50.0332 4.58789 49.8145C4.46289 49.5957 4.2793 49.4277 4.03711 49.3105C3.79492 49.1934 3.49609 49.1348 3.14062 49.1348C2.8125 49.1348 2.51953 49.1934 2.26172 49.3105C2.00781 49.4238 1.80664 49.5781 1.6582 49.7734C1.51367 49.9648 1.44141 50.1777 1.44141 50.4121L0.738281 50.4062C0.738281 50.168 0.796875 49.9375 0.914062 49.7148C1.03125 49.4922 1.19727 49.293 1.41211 49.1172C1.62695 48.9414 1.88281 48.8027 2.17969 48.7012C2.48047 48.5957 2.81055 48.543 3.16992 48.543C3.62305 48.543 4.02148 48.6191 4.36523 48.7715C4.71289 48.9238 4.98438 49.1523 5.17969 49.457C5.375 49.7617 5.47266 50.1445 5.47266 50.6055V53.6699C5.47266 53.8887 5.48828 54.1152 5.51953 54.3496C5.55469 54.584 5.60352 54.7773 5.66602 54.9297V55H4.92188C4.875 54.8594 4.83789 54.6836 4.81055 54.4727C4.78711 54.2578 4.77539 54.0547 4.77539 53.8633ZM4.93945 51.3086L4.95117 51.8477H3.57422C3.21484 51.8477 2.89258 51.8809 2.60742 51.9473C2.32617 52.0098 2.08789 52.1035 1.89258 52.2285C1.69727 52.3496 1.54688 52.4961 1.44141 52.668C1.33984 52.8398 1.28906 53.0352 1.28906 53.2539C1.28906 53.4805 1.3457 53.6875 1.45898 53.875C1.57617 54.0625 1.74023 54.2129 1.95117 54.3262C2.16602 54.4355 2.41992 54.4902 2.71289 54.4902C3.10352 54.4902 3.44727 54.418 3.74414 54.2734C4.04492 54.1289 4.29297 53.9395 4.48828 53.7051C4.68359 53.4707 4.81445 53.2148 4.88086 52.9375L5.18555 53.3418C5.13477 53.5371 5.04102 53.7383 4.9043 53.9453C4.77148 54.1484 4.59766 54.3398 4.38281 54.5195C4.16797 54.6953 3.91406 54.8398 3.62109 54.9531C3.33203 55.0625 3.00391 55.1172 2.63672 55.1172C2.22266 55.1172 1.86133 55.0391 1.55273 54.8828C1.24805 54.7266 1.00977 54.5137 0.837891 54.2441C0.669922 53.9707 0.585938 53.6621 0.585938 53.3184C0.585938 53.0059 0.652344 52.7266 0.785156 52.4805C0.917969 52.2305 1.10938 52.0195 1.35938 51.8477C1.61328 51.6719 1.91797 51.5391 2.27344 51.4492C2.63281 51.3555 3.03516 51.3086 3.48047 51.3086H4.93945ZM8.01562 49.9727V55H7.3125V48.6602H7.98633L8.01562 49.9727ZM7.88672 51.4375L7.54688 51.2617C7.57031 50.8867 7.64062 50.5352 7.75781 50.207C7.87891 49.8789 8.04688 49.5898 8.26172 49.3398C8.47656 49.0898 8.73438 48.8945 9.03516 48.7539C9.33594 48.6133 9.67773 48.543 10.0605 48.543C10.3691 48.543 10.6484 48.5859 10.8984 48.6719C11.1523 48.7539 11.3672 48.8848 11.543 49.0645C11.7227 49.2402 11.8613 49.4707 11.959 49.7559C12.0566 50.041 12.1055 50.3828 12.1055 50.7812V55H11.4082V50.8047C11.4082 50.3828 11.3418 50.0527 11.209 49.8145C11.0801 49.5762 10.8984 49.4062 10.6641 49.3047C10.4336 49.2031 10.166 49.1523 9.86133 49.1523C9.50195 49.1523 9.19727 49.2266 8.94727 49.375C8.70117 49.5195 8.5 49.709 8.34375 49.9434C8.19141 50.1738 8.07812 50.4219 8.00391 50.6875C7.92969 50.9492 7.89062 51.1992 7.88672 51.4375ZM12.0996 50.8867L11.6309 50.8984C11.6504 50.5898 11.7207 50.2949 11.8418 50.0137C11.9668 49.7324 12.1367 49.4824 12.3516 49.2637C12.5664 49.041 12.8223 48.8652 13.1191 48.7363C13.4199 48.6074 13.7578 48.543 14.1328 48.543C14.4609 48.543 14.7539 48.5879 15.0117 48.6777C15.2695 48.7637 15.4863 48.9023 15.6621 49.0938C15.8418 49.2812 15.9785 49.5215 16.0723 49.8145C16.166 50.1074 16.2129 50.459 16.2129 50.8691V55H15.5098V50.8633C15.5098 50.4141 15.4434 50.0664 15.3105 49.8203C15.1816 49.5703 15.002 49.3965 14.7715 49.2988C14.541 49.2012 14.2715 49.1523 13.9629 49.1523C13.6582 49.1562 13.3906 49.2129 13.1602 49.3223C12.9297 49.4277 12.7363 49.5684 12.5801 49.7441C12.4277 49.916 12.3105 50.1016 12.2285 50.3008C12.1504 50.5 12.1074 50.6953 12.0996 50.8867ZM21.8496 53.8633V50.5938C21.8496 50.293 21.7871 50.0332 21.6621 49.8145C21.5371 49.5957 21.3535 49.4277 21.1113 49.3105C20.8691 49.1934 20.5703 49.1348 20.2148 49.1348C19.8867 49.1348 19.5938 49.1934 19.3359 49.3105C19.082 49.4238 18.8809 49.5781 18.7324 49.7734C18.5879 49.9648 18.5156 50.1777 18.5156 50.4121L17.8125 50.4062C17.8125 50.168 17.8711 49.9375 17.9883 49.7148C18.1055 49.4922 18.2715 49.293 18.4863 49.1172C18.7012 48.9414 18.957 48.8027 19.2539 48.7012C19.5547 48.5957 19.8848 48.543 20.2441 48.543C20.6973 48.543 21.0957 48.6191 21.4395 48.7715C21.7871 48.9238 22.0586 49.1523 22.2539 49.457C22.4492 49.7617 22.5469 50.1445 22.5469 50.6055V53.6699C22.5469 53.8887 22.5625 54.1152 22.5938 54.3496C22.6289 54.584 22.6777 54.7773 22.7402 54.9297V55H21.9961C21.9492 54.8594 21.9121 54.6836 21.8848 54.4727C21.8613 54.2578 21.8496 54.0547 21.8496 53.8633ZM22.0137 51.3086L22.0254 51.8477H20.6484C20.2891 51.8477 19.9668 51.8809 19.6816 51.9473C19.4004 52.0098 19.1621 52.1035 18.9668 52.2285C18.7715 52.3496 18.6211 52.4961 18.5156 52.668C18.4141 52.8398 18.3633 53.0352 18.3633 53.2539C18.3633 53.4805 18.4199 53.6875 18.5332 53.875C18.6504 54.0625 18.8145 54.2129 19.0254 54.3262C19.2402 54.4355 19.4941 54.4902 19.7871 54.4902C20.1777 54.4902 20.5215 54.418 20.8184 54.2734C21.1191 54.1289 21.3672 53.9395 21.5625 53.7051C21.7578 53.4707 21.8887 53.2148 21.9551 52.9375L22.2598 53.3418C22.209 53.5371 22.1152 53.7383 21.9785 53.9453C21.8457 54.1484 21.6719 54.3398 21.457 54.5195C21.2422 54.6953 20.9883 54.8398 20.6953 54.9531C20.4062 55.0625 20.0781 55.1172 19.7109 55.1172C19.2969 55.1172 18.9355 55.0391 18.627 54.8828C18.3223 54.7266 18.084 54.5137 17.9121 54.2441C17.7441 53.9707 17.6602 53.6621 17.6602 53.3184C17.6602 53.0059 17.7266 52.7266 17.8594 52.4805C17.9922 52.2305 18.1836 52.0195 18.4336 51.8477C18.6875 51.6719 18.9922 51.5391 19.3477 51.4492C19.707 51.3555 20.1094 51.3086 20.5547 51.3086H22.0137ZM29.0039 54.3965V55H24.2754V54.3965H29.0039ZM28.7461 49.1816L24.4512 55H24.0234V54.4727L28.3066 48.6602H28.7461V49.1816ZM28.4355 48.6602V49.2695H24.1406V48.6602H28.4355ZM29.7949 51.9297V51.7363C29.7949 51.2754 29.8613 50.8496 29.9941 50.459C30.127 50.0684 30.3164 49.7305 30.5625 49.4453C30.8125 49.1602 31.1113 48.9395 31.459 48.7832C31.8066 48.623 32.1934 48.543 32.6191 48.543C33.0488 48.543 33.4375 48.623 33.7852 48.7832C34.1328 48.9395 34.4316 49.1602 34.6816 49.4453C34.9316 49.7305 35.123 50.0684 35.2559 50.459C35.3887 50.8496 35.4551 51.2754 35.4551 51.7363V51.9297C35.4551 52.3906 35.3887 52.8164 35.2559 53.207C35.123 53.5938 34.9316 53.9297 34.6816 54.2148C34.4355 54.5 34.1387 54.7227 33.791 54.8828C33.4434 55.0391 33.0566 55.1172 32.6309 55.1172C32.2012 55.1172 31.8125 55.0391 31.4648 54.8828C31.1172 54.7227 30.8184 54.5 30.5684 54.2148C30.3184 53.9297 30.127 53.5938 29.9941 53.207C29.8613 52.8164 29.7949 52.3906 29.7949 51.9297ZM30.4922 51.7363V51.9297C30.4922 52.2773 30.5391 52.6074 30.6328 52.9199C30.7266 53.2285 30.8633 53.5039 31.043 53.7461C31.2227 53.9844 31.4453 54.1719 31.7109 54.3086C31.9766 54.4453 32.2832 54.5137 32.6309 54.5137C32.9746 54.5137 33.2773 54.4453 33.5391 54.3086C33.8047 54.1719 34.0273 53.9844 34.207 53.7461C34.3867 53.5039 34.5215 53.2285 34.6113 52.9199C34.7051 52.6074 34.752 52.2773 34.752 51.9297V51.7363C34.752 51.3926 34.7051 51.0664 34.6113 50.7578C34.5215 50.4492 34.3848 50.1738 34.2012 49.9316C34.0215 49.6895 33.7988 49.498 33.5332 49.3574C33.2676 49.2168 32.9629 49.1465 32.6191 49.1465C32.2754 49.1465 31.9707 49.2168 31.7051 49.3574C31.4434 49.498 31.2207 49.6895 31.0371 49.9316C30.8574 50.1738 30.7207 50.4492 30.627 50.7578C30.5371 51.0664 30.4922 51.3926 30.4922 51.7363ZM37.6055 50.0137V55H36.9082V48.6602H37.5762L37.6055 50.0137ZM37.4473 51.4375L37.1367 51.2617C37.1602 50.8867 37.2363 50.5352 37.3652 50.207C37.4941 49.8789 37.668 49.5898 37.8867 49.3398C38.1094 49.0898 38.3691 48.8945 38.666 48.7539C38.9668 48.6133 39.2988 48.543 39.6621 48.543C39.9785 48.543 40.2617 48.5859 40.5117 48.6719C40.7617 48.7578 40.9746 48.8945 41.1504 49.082C41.3262 49.2695 41.459 49.5098 41.5488 49.8027C41.6426 50.0957 41.6895 50.4531 41.6895 50.875V55H40.9863V50.8691C40.9863 50.4316 40.9258 50.0898 40.8047 49.8438C40.6836 49.5938 40.5117 49.416 40.2891 49.3105C40.0664 49.2051 39.8027 49.1523 39.498 49.1523C39.1621 49.1523 38.8672 49.2266 38.6133 49.375C38.3633 49.5195 38.1523 49.709 37.9805 49.9434C37.8125 50.1738 37.6836 50.4219 37.5938 50.6875C37.5039 50.9492 37.4551 51.1992 37.4473 51.4375Z" fill="black"/>
<rect x="15" y="10" width="17" height="17" rx="3" fill="white"/>
</svg>
