<svg width="47" height="58" viewBox="0 0 47 58" fill="none" xmlns="http://www.w3.org/2000/svg">
<circle cx="23.5" cy="18" r="18" fill="#E1E3E1"/>
<path d="M3.98438 51.5254H1.55273V50.9102H3.98438C4.49219 50.9102 4.9043 50.8281 5.2207 50.6641C5.54102 50.4961 5.77344 50.2695 5.91797 49.9844C6.06641 49.6992 6.14062 49.3789 6.14062 49.0234C6.14062 48.6758 6.06641 48.3555 5.91797 48.0625C5.77344 47.7695 5.54102 47.5352 5.2207 47.3594C4.9043 47.1797 4.49219 47.0898 3.98438 47.0898H1.80469V55H1.08398V46.4688H3.98438C4.60938 46.4688 5.13477 46.5762 5.56055 46.791C5.99023 47.0059 6.31445 47.3047 6.5332 47.6875C6.75195 48.0703 6.86133 48.5117 6.86133 49.0117C6.86133 49.5352 6.75195 49.9863 6.5332 50.3652C6.31445 50.7402 5.99219 51.0273 5.56641 51.2266C5.14062 51.4258 4.61328 51.5254 3.98438 51.5254ZM12.0996 53.8633V50.5938C12.0996 50.293 12.0371 50.0332 11.9121 49.8145C11.7871 49.5957 11.6035 49.4277 11.3613 49.3105C11.1191 49.1934 10.8203 49.1348 10.4648 49.1348C10.1367 49.1348 9.84375 49.1934 9.58594 49.3105C9.33203 49.4238 9.13086 49.5781 8.98242 49.7734C8.83789 49.9648 8.76562 50.1777 8.76562 50.4121L8.0625 50.4062C8.0625 50.168 8.12109 49.9375 8.23828 49.7148C8.35547 49.4922 8.52148 49.293 8.73633 49.1172C8.95117 48.9414 9.20703 48.8027 9.50391 48.7012C9.80469 48.5957 10.1348 48.543 10.4941 48.543C10.9473 48.543 11.3457 48.6191 11.6895 48.7715C12.0371 48.9238 12.3086 49.1523 12.5039 49.457C12.6992 49.7617 12.7969 50.1445 12.7969 50.6055V53.6699C12.7969 53.8887 12.8125 54.1152 12.8438 54.3496C12.8789 54.584 12.9277 54.7773 12.9902 54.9297V55H12.2461C12.1992 54.8594 12.1621 54.6836 12.1348 54.4727C12.1113 54.2578 12.0996 54.0547 12.0996 53.8633ZM12.2637 51.3086L12.2754 51.8477H10.8984C10.5391 51.8477 10.2168 51.8809 9.93164 51.9473C9.65039 52.0098 9.41211 52.1035 9.2168 52.2285C9.02148 52.3496 8.87109 52.4961 8.76562 52.668C8.66406 52.8398 8.61328 53.0352 8.61328 53.2539C8.61328 53.4805 8.66992 53.6875 8.7832 53.875C8.90039 54.0625 9.06445 54.2129 9.27539 54.3262C9.49023 54.4355 9.74414 54.4902 10.0371 54.4902C10.4277 54.4902 10.7715 54.418 11.0684 54.2734C11.3691 54.1289 11.6172 53.9395 11.8125 53.7051C12.0078 53.4707 12.1387 53.2148 12.2051 52.9375L12.5098 53.3418C12.459 53.5371 12.3652 53.7383 12.2285 53.9453C12.0957 54.1484 11.9219 54.3398 11.707 54.5195C11.4922 54.6953 11.2383 54.8398 10.9453 54.9531C10.6562 55.0625 10.3281 55.1172 9.96094 55.1172C9.54688 55.1172 9.18555 55.0391 8.87695 54.8828C8.57227 54.7266 8.33398 54.5137 8.16211 54.2441C7.99414 53.9707 7.91016 53.6621 7.91016 53.3184C7.91016 53.0059 7.97656 52.7266 8.10938 52.4805C8.24219 52.2305 8.43359 52.0195 8.68359 51.8477C8.9375 51.6719 9.24219 51.5391 9.59766 51.4492C9.95703 51.3555 10.3594 51.3086 10.8047 51.3086H12.2637ZM16.4648 54.3672L18.4395 48.6602H19.1953L16.5117 56.0195C16.457 56.1641 16.3867 56.3242 16.3008 56.5C16.2188 56.6758 16.1094 56.8438 15.9727 57.0039C15.8398 57.168 15.6719 57.3008 15.4688 57.4023C15.2695 57.5078 15.0254 57.5605 14.7363 57.5605C14.6621 57.5605 14.5664 57.5508 14.4492 57.5312C14.3359 57.5156 14.2539 57.5 14.2031 57.4844L14.1973 56.8926C14.2402 56.9043 14.3027 56.9141 14.3848 56.9219C14.4668 56.9297 14.5234 56.9336 14.5547 56.9336C14.8086 56.9336 15.0215 56.8906 15.1934 56.8047C15.3691 56.7188 15.5156 56.5898 15.6328 56.418C15.75 56.25 15.8535 56.0391 15.9434 55.7852L16.4648 54.3672ZM14.6191 48.6602L16.6406 54.1035L16.8281 54.8359L16.3184 55.123L13.8574 48.6602H14.6191ZM23.3555 51.5254H20.9238V50.9102H23.3555C23.8633 50.9102 24.2754 50.8281 24.5918 50.6641C24.9121 50.4961 25.1445 50.2695 25.2891 49.9844C25.4375 49.6992 25.5117 49.3789 25.5117 49.0234C25.5117 48.6758 25.4375 48.3555 25.2891 48.0625C25.1445 47.7695 24.9121 47.5352 24.5918 47.3594C24.2754 47.1797 23.8633 47.0898 23.3555 47.0898H21.1758V55H20.4551V46.4688H23.3555C23.9805 46.4688 24.5059 46.5762 24.9316 46.791C25.3613 47.0059 25.6855 47.3047 25.9043 47.6875C26.123 48.0703 26.2324 48.5117 26.2324 49.0117C26.2324 49.5352 26.123 49.9863 25.9043 50.3652C25.6855 50.7402 25.3633 51.0273 24.9375 51.2266C24.5117 51.4258 23.9844 51.5254 23.3555 51.5254ZM31.4707 53.8633V50.5938C31.4707 50.293 31.4082 50.0332 31.2832 49.8145C31.1582 49.5957 30.9746 49.4277 30.7324 49.3105C30.4902 49.1934 30.1914 49.1348 29.8359 49.1348C29.5078 49.1348 29.2148 49.1934 28.957 49.3105C28.7031 49.4238 28.502 49.5781 28.3535 49.7734C28.209 49.9648 28.1367 50.1777 28.1367 50.4121L27.4336 50.4062C27.4336 50.168 27.4922 49.9375 27.6094 49.7148C27.7266 49.4922 27.8926 49.293 28.1074 49.1172C28.3223 48.9414 28.5781 48.8027 28.875 48.7012C29.1758 48.5957 29.5059 48.543 29.8652 48.543C30.3184 48.543 30.7168 48.6191 31.0605 48.7715C31.4082 48.9238 31.6797 49.1523 31.875 49.457C32.0703 49.7617 32.168 50.1445 32.168 50.6055V53.6699C32.168 53.8887 32.1836 54.1152 32.2148 54.3496C32.25 54.584 32.2988 54.7773 32.3613 54.9297V55H31.6172C31.5703 54.8594 31.5332 54.6836 31.5059 54.4727C31.4824 54.2578 31.4707 54.0547 31.4707 53.8633ZM31.6348 51.3086L31.6465 51.8477H30.2695C29.9102 51.8477 29.5879 51.8809 29.3027 51.9473C29.0215 52.0098 28.7832 52.1035 28.5879 52.2285C28.3926 52.3496 28.2422 52.4961 28.1367 52.668C28.0352 52.8398 27.9844 53.0352 27.9844 53.2539C27.9844 53.4805 28.041 53.6875 28.1543 53.875C28.2715 54.0625 28.4355 54.2129 28.6465 54.3262C28.8613 54.4355 29.1152 54.4902 29.4082 54.4902C29.7988 54.4902 30.1426 54.418 30.4395 54.2734C30.7402 54.1289 30.9883 53.9395 31.1836 53.7051C31.3789 53.4707 31.5098 53.2148 31.5762 52.9375L31.8809 53.3418C31.8301 53.5371 31.7363 53.7383 31.5996 53.9453C31.4668 54.1484 31.293 54.3398 31.0781 54.5195C30.8633 54.6953 30.6094 54.8398 30.3164 54.9531C30.0273 55.0625 29.6992 55.1172 29.332 55.1172C28.918 55.1172 28.5566 55.0391 28.248 54.8828C27.9434 54.7266 27.7051 54.5137 27.5332 54.2441C27.3652 53.9707 27.2812 53.6621 27.2812 53.3184C27.2812 53.0059 27.3477 52.7266 27.4805 52.4805C27.6133 52.2305 27.8047 52.0195 28.0547 51.8477C28.3086 51.6719 28.6133 51.5391 28.9688 51.4492C29.3281 51.3555 29.7305 51.3086 30.1758 51.3086H31.6348ZM34.8281 46V55H34.1309V46H34.8281Z" fill="black"/>
<rect x="15" y="9" width="18" height="18" rx="9" fill="#358319"/>
<path d="M26.5 17L22 21.5V15L26.5 17Z" fill="white"/>
</svg>
