<svg width="9" height="15" viewBox="0 0 9 15" fill="none" xmlns="http://www.w3.org/2000/svg">
<path d="M6.49188 4.5C6.49188 6.98528 5.59645 9 4.49188 9C3.38731 9 2.49188 6.98528 2.49188 4.5C2.49188 2.01472 3.38731 0 4.49188 0C5.59645 0 6.49188 2.01472 6.49188 4.5Z" fill="black"/>
<path d="M0.491882 7C0.491882 7 1.21717 11 4.49188 11C7.7666 11 8.49188 7 8.49188 7" stroke="black"/>
<path d="M5.48187 10.9975C4.8152 10.9992 4.14854 11.0009 3.48188 11.0025C3.49871 11.0692 3.51554 11.1358 3.53238 11.2024C3.83538 12.4016 4.13838 13.6009 4.44138 14.8001C4.45822 14.8668 4.47505 14.9334 4.49188 15C4.50838 14.9333 4.52488 14.8666 4.54138 14.7999C4.83838 13.5991 5.13537 12.3984 5.43237 11.1977C5.44887 11.1309 5.46537 11.0642 5.48187 10.9975Z" fill="black"/>
</svg>
