<svg width="47" height="58" viewBox="0 0 47 58" fill="none" xmlns="http://www.w3.org/2000/svg">
<circle cx="23.5" cy="18" r="18" fill="#E1E3E1"/>
<path d="M5.0918 48.6602H5.74219V54.8887C5.74219 55.4395 5.63672 55.9121 5.42578 56.3066C5.21875 56.7012 4.92383 57.0039 4.54102 57.2148C4.16211 57.4258 3.71484 57.5312 3.19922 57.5312C2.9375 57.5312 2.66797 57.4902 2.39062 57.4082C2.11719 57.3301 1.85742 57.209 1.61133 57.0449C1.36914 56.8848 1.16211 56.6855 0.990234 56.4473L1.38281 56.0195C1.64062 56.332 1.91602 56.5605 2.20898 56.7051C2.50195 56.8535 2.81836 56.9277 3.1582 56.9277C3.56055 56.9277 3.90039 56.8477 4.17773 56.6875C4.45898 56.5273 4.67188 56.2969 4.81641 55.9961C4.96484 55.6953 5.03906 55.334 5.03906 54.9121V50.0547L5.0918 48.6602ZM0.638672 51.8945V51.7715C0.638672 51.2793 0.693359 50.8359 0.802734 50.4414C0.916016 50.043 1.07812 49.7031 1.28906 49.4219C1.5 49.1367 1.75586 48.9199 2.05664 48.7715C2.36133 48.6191 2.70508 48.543 3.08789 48.543C3.45508 48.543 3.78125 48.6035 4.06641 48.7246C4.35156 48.8457 4.59766 49.0195 4.80469 49.2461C5.01172 49.4727 5.17773 49.7422 5.30273 50.0547C5.43164 50.3672 5.52539 50.7148 5.58398 51.0977V52.6621C5.53711 53.0215 5.45117 53.3516 5.32617 53.6523C5.20117 53.9492 5.03516 54.209 4.82812 54.4316C4.62109 54.6504 4.37109 54.8203 4.07812 54.9414C3.78906 55.0586 3.45508 55.1172 3.07617 55.1172C2.69727 55.1172 2.35742 55.0391 2.05664 54.8828C1.75586 54.7266 1.5 54.5059 1.28906 54.2207C1.07812 53.9316 0.916016 53.5898 0.802734 53.1953C0.693359 52.8008 0.638672 52.3672 0.638672 51.8945ZM1.3418 51.7715V51.8945C1.3418 52.2656 1.37891 52.6094 1.45312 52.9258C1.52734 53.2422 1.64062 53.5176 1.79297 53.752C1.94531 53.9863 2.13867 54.1699 2.37305 54.3027C2.60742 54.4355 2.88281 54.502 3.19922 54.502C3.60156 54.502 3.93945 54.4258 4.21289 54.2734C4.48633 54.1172 4.70312 53.9121 4.86328 53.6582C5.02344 53.4004 5.14062 53.1191 5.21484 52.8145V50.9922C5.17188 50.7852 5.10547 50.5742 5.01562 50.3594C4.92969 50.1445 4.80859 49.9473 4.65234 49.7676C4.5 49.584 4.30469 49.4375 4.06641 49.3281C3.83203 49.2148 3.54688 49.1582 3.21094 49.1582C2.89062 49.1582 2.61133 49.2246 2.37305 49.3574C2.13867 49.4902 1.94531 49.6758 1.79297 49.9141C1.64062 50.1484 1.52734 50.4238 1.45312 50.7402C1.37891 51.0566 1.3418 51.4004 1.3418 51.7715ZM8.23828 49.9727V55H7.53516V48.6602H8.20898L8.23828 49.9727ZM8.10938 51.4375L7.76953 51.2617C7.79297 50.8867 7.86328 50.5352 7.98047 50.207C8.10156 49.8789 8.26953 49.5898 8.48438 49.3398C8.69922 49.0898 8.95703 48.8945 9.25781 48.7539C9.55859 48.6133 9.90039 48.543 10.2832 48.543C10.5918 48.543 10.8711 48.5859 11.1211 48.6719C11.375 48.7539 11.5898 48.8848 11.7656 49.0645C11.9453 49.2402 12.084 49.4707 12.1816 49.7559C12.2793 50.041 12.3281 50.3828 12.3281 50.7812V55H11.6309V50.8047C11.6309 50.3828 11.5645 50.0527 11.4316 49.8145C11.3027 49.5762 11.1211 49.4062 10.8867 49.3047C10.6562 49.2031 10.3887 49.1523 10.084 49.1523C9.72461 49.1523 9.41992 49.2266 9.16992 49.375C8.92383 49.5195 8.72266 49.709 8.56641 49.9434C8.41406 50.1738 8.30078 50.4219 8.22656 50.6875C8.15234 50.9492 8.11328 51.1992 8.10938 51.4375ZM12.3223 50.8867L11.8535 50.8984C11.873 50.5898 11.9434 50.2949 12.0645 50.0137C12.1895 49.7324 12.3594 49.4824 12.5742 49.2637C12.7891 49.041 13.0449 48.8652 13.3418 48.7363C13.6426 48.6074 13.9805 48.543 14.3555 48.543C14.6836 48.543 14.9766 48.5879 15.2344 48.6777C15.4922 48.7637 15.709 48.9023 15.8848 49.0938C16.0645 49.2812 16.2012 49.5215 16.2949 49.8145C16.3887 50.1074 16.4355 50.459 16.4355 50.8691V55H15.7324V50.8633C15.7324 50.4141 15.666 50.0664 15.5332 49.8203C15.4043 49.5703 15.2246 49.3965 14.9941 49.2988C14.7637 49.2012 14.4941 49.1523 14.1855 49.1523C13.8809 49.1562 13.6133 49.2129 13.3828 49.3223C13.1523 49.4277 12.959 49.5684 12.8027 49.7441C12.6504 49.916 12.5332 50.1016 12.4512 50.3008C12.373 50.5 12.3301 50.6953 12.3223 50.8867ZM22.0723 53.8633V50.5938C22.0723 50.293 22.0098 50.0332 21.8848 49.8145C21.7598 49.5957 21.5762 49.4277 21.334 49.3105C21.0918 49.1934 20.793 49.1348 20.4375 49.1348C20.1094 49.1348 19.8164 49.1934 19.5586 49.3105C19.3047 49.4238 19.1035 49.5781 18.9551 49.7734C18.8105 49.9648 18.7383 50.1777 18.7383 50.4121L18.0352 50.4062C18.0352 50.168 18.0938 49.9375 18.2109 49.7148C18.3281 49.4922 18.4941 49.293 18.709 49.1172C18.9238 48.9414 19.1797 48.8027 19.4766 48.7012C19.7773 48.5957 20.1074 48.543 20.4668 48.543C20.9199 48.543 21.3184 48.6191 21.6621 48.7715C22.0098 48.9238 22.2812 49.1523 22.4766 49.457C22.6719 49.7617 22.7695 50.1445 22.7695 50.6055V53.6699C22.7695 53.8887 22.7852 54.1152 22.8164 54.3496C22.8516 54.584 22.9004 54.7773 22.9629 54.9297V55H22.2188C22.1719 54.8594 22.1348 54.6836 22.1074 54.4727C22.084 54.2578 22.0723 54.0547 22.0723 53.8633ZM22.2363 51.3086L22.248 51.8477H20.8711C20.5117 51.8477 20.1895 51.8809 19.9043 51.9473C19.623 52.0098 19.3848 52.1035 19.1895 52.2285C18.9941 52.3496 18.8438 52.4961 18.7383 52.668C18.6367 52.8398 18.5859 53.0352 18.5859 53.2539C18.5859 53.4805 18.6426 53.6875 18.7559 53.875C18.873 54.0625 19.0371 54.2129 19.248 54.3262C19.4629 54.4355 19.7168 54.4902 20.0098 54.4902C20.4004 54.4902 20.7441 54.418 21.041 54.2734C21.3418 54.1289 21.5898 53.9395 21.7852 53.7051C21.9805 53.4707 22.1113 53.2148 22.1777 52.9375L22.4824 53.3418C22.4316 53.5371 22.3379 53.7383 22.2012 53.9453C22.0684 54.1484 21.8945 54.3398 21.6797 54.5195C21.4648 54.6953 21.2109 54.8398 20.918 54.9531C20.6289 55.0625 20.3008 55.1172 19.9336 55.1172C19.5195 55.1172 19.1582 55.0391 18.8496 54.8828C18.5449 54.7266 18.3066 54.5137 18.1348 54.2441C17.9668 53.9707 17.8828 53.6621 17.8828 53.3184C17.8828 53.0059 17.9492 52.7266 18.082 52.4805C18.2148 52.2305 18.4062 52.0195 18.6562 51.8477C18.9102 51.6719 19.2148 51.5391 19.5703 51.4492C19.9297 51.3555 20.332 51.3086 20.7773 51.3086H22.2363ZM25.4297 48.6602V55H24.7324V48.6602H25.4297ZM24.6094 46.8262C24.6094 46.6934 24.6504 46.582 24.7324 46.4922C24.8184 46.3984 24.9355 46.3516 25.084 46.3516C25.2324 46.3516 25.3496 46.3984 25.4355 46.4922C25.5254 46.582 25.5703 46.6934 25.5703 46.8262C25.5703 46.9551 25.5254 47.0664 25.4355 47.1602C25.3496 47.25 25.2324 47.2949 25.084 47.2949C24.9355 47.2949 24.8184 47.25 24.7324 47.1602C24.6504 47.0664 24.6094 46.9551 24.6094 46.8262ZM28.125 46V55H27.4277V46H28.125Z" fill="black"/>
<rect x="15" y="13" width="3" height="11" rx="1.5" fill="#196EDD"/>
<rect x="14" y="14.1213" width="3" height="11" rx="1.5" transform="rotate(-45 14 14.1213)" fill="#ED272A"/>
<path d="M26.3743 13.0607C26.9601 12.4749 27.9099 12.4749 28.4957 13.0607C29.0814 13.6464 29.0814 14.5962 28.4957 15.182L22.8388 20.8388C22.253 21.4246 21.3033 21.4246 20.7175 20.8388C20.1317 20.253 20.1317 19.3033 20.7175 18.7175L26.3743 13.0607Z" fill="#FFCD27"/>
<path d="M26 14.5C26 13.6716 26.6716 13 27.5 13C28.3284 13 29 13.6716 29 14.5V22.5C29 23.3284 28.3284 24 27.5 24C26.6716 24 26 23.3284 26 22.5V14.5Z" fill="#358319"/>
</svg>
