<svg width="47" height="58" viewBox="0 0 47 58" fill="none" xmlns="http://www.w3.org/2000/svg">
<circle cx="23.5" cy="18" r="18" fill="#E1E3E1"/>
<path d="M0.996094 46.4688L3.58008 51.1152L6.1875 46.4688H7.01953L3.94336 51.7832V55H3.22266V51.7832L0.140625 46.4688H0.996094ZM7.33008 51.9297V51.7363C7.33008 51.2754 7.39648 50.8496 7.5293 50.459C7.66211 50.0684 7.85156 49.7305 8.09766 49.4453C8.34766 49.1602 8.64648 48.9395 8.99414 48.7832C9.3418 48.623 9.72852 48.543 10.1543 48.543C10.584 48.543 10.9727 48.623 11.3203 48.7832C11.668 48.9395 11.9668 49.1602 12.2168 49.4453C12.4668 49.7305 12.6582 50.0684 12.791 50.459C12.9238 50.8496 12.9902 51.2754 12.9902 51.7363V51.9297C12.9902 52.3906 12.9238 52.8164 12.791 53.207C12.6582 53.5938 12.4668 53.9297 12.2168 54.2148C11.9707 54.5 11.6738 54.7227 11.3262 54.8828C10.9785 55.0391 10.5918 55.1172 10.166 55.1172C9.73633 55.1172 9.34766 55.0391 9 54.8828C8.65234 54.7227 8.35352 54.5 8.10352 54.2148C7.85352 53.9297 7.66211 53.5938 7.5293 53.207C7.39648 52.8164 7.33008 52.3906 7.33008 51.9297ZM8.02734 51.7363V51.9297C8.02734 52.2773 8.07422 52.6074 8.16797 52.9199C8.26172 53.2285 8.39844 53.5039 8.57812 53.7461C8.75781 53.9844 8.98047 54.1719 9.24609 54.3086C9.51172 54.4453 9.81836 54.5137 10.166 54.5137C10.5098 54.5137 10.8125 54.4453 11.0742 54.3086C11.3398 54.1719 11.5625 53.9844 11.7422 53.7461C11.9219 53.5039 12.0566 53.2285 12.1465 52.9199C12.2402 52.6074 12.2871 52.2773 12.2871 51.9297V51.7363C12.2871 51.3926 12.2402 51.0664 12.1465 50.7578C12.0566 50.4492 11.9199 50.1738 11.7363 49.9316C11.5566 49.6895 11.334 49.498 11.0684 49.3574C10.8027 49.2168 10.498 49.1465 10.1543 49.1465C9.81055 49.1465 9.50586 49.2168 9.24023 49.3574C8.97852 49.498 8.75586 49.6895 8.57227 49.9316C8.39258 50.1738 8.25586 50.4492 8.16211 50.7578C8.07227 51.0664 8.02734 51.3926 8.02734 51.7363ZM18.5039 53.5352V48.6602H19.207V55H18.5332L18.5039 53.5352ZM18.6328 52.3633L18.9961 52.3516C18.9961 52.75 18.9492 53.1172 18.8555 53.4531C18.7617 53.7891 18.6152 54.082 18.416 54.332C18.2168 54.582 17.959 54.7754 17.6426 54.9121C17.3262 55.0488 16.9453 55.1172 16.5 55.1172C16.1914 55.1172 15.9082 55.0742 15.6504 54.9883C15.3965 54.8984 15.1777 54.7578 14.9941 54.5664C14.8105 54.375 14.668 54.127 14.5664 53.8223C14.4688 53.5176 14.4199 53.1484 14.4199 52.7148V48.6602H15.1172V52.7266C15.1172 53.0664 15.1543 53.3496 15.2285 53.5762C15.3066 53.8027 15.4121 53.9844 15.5449 54.1211C15.6816 54.2578 15.8379 54.3555 16.0137 54.4141C16.1895 54.4727 16.3789 54.502 16.582 54.502C17.0977 54.502 17.5039 54.4023 17.8008 54.2031C18.1016 54.0039 18.3145 53.7422 18.4395 53.418C18.5684 53.0898 18.6328 52.7383 18.6328 52.3633ZM24.0645 46.4688V55H23.3496V46.4688H24.0645ZM26.9883 46.4688V47.0898H20.4316V46.4688H26.9883ZM31.7109 53.5352V48.6602H32.4141V55H31.7402L31.7109 53.5352ZM31.8398 52.3633L32.2031 52.3516C32.2031 52.75 32.1562 53.1172 32.0625 53.4531C31.9688 53.7891 31.8223 54.082 31.623 54.332C31.4238 54.582 31.166 54.7754 30.8496 54.9121C30.5332 55.0488 30.1523 55.1172 29.707 55.1172C29.3984 55.1172 29.1152 55.0742 28.8574 54.9883C28.6035 54.8984 28.3848 54.7578 28.2012 54.5664C28.0176 54.375 27.875 54.127 27.7734 53.8223C27.6758 53.5176 27.627 53.1484 27.627 52.7148V48.6602H28.3242V52.7266C28.3242 53.0664 28.3613 53.3496 28.4355 53.5762C28.5137 53.8027 28.6191 53.9844 28.752 54.1211C28.8887 54.2578 29.0449 54.3555 29.2207 54.4141C29.3965 54.4727 29.5859 54.502 29.7891 54.502C30.3047 54.502 30.7109 54.4023 31.0078 54.2031C31.3086 54.0039 31.5215 53.7422 31.6465 53.418C31.7754 53.0898 31.8398 52.7383 31.8398 52.3633ZM34.2363 46H34.9395V53.7695L34.8926 55H34.2363V46ZM39.3516 51.7715V51.8945C39.3516 52.3672 39.2969 52.8008 39.1875 53.1953C39.0781 53.5898 38.9199 53.9316 38.7129 54.2207C38.5059 54.5059 38.252 54.7266 37.9512 54.8828C37.6543 55.0391 37.3125 55.1172 36.9258 55.1172C36.5469 55.1172 36.2109 55.0586 35.918 54.9414C35.625 54.8203 35.375 54.6504 35.168 54.4316C34.9609 54.209 34.7949 53.9492 34.6699 53.6523C34.5449 53.3516 34.457 53.0215 34.4062 52.6621V51.0977C34.4648 50.7148 34.5586 50.3672 34.6875 50.0547C34.8164 49.7422 34.9824 49.4727 35.1855 49.2461C35.3926 49.0195 35.6387 48.8457 35.9238 48.7246C36.2129 48.6035 36.543 48.543 36.9141 48.543C37.3008 48.543 37.6445 48.6191 37.9453 48.7715C38.25 48.9199 38.5059 49.1367 38.7129 49.4219C38.9199 49.7031 39.0781 50.043 39.1875 50.4414C39.2969 50.8359 39.3516 51.2793 39.3516 51.7715ZM38.6426 51.8945V51.7715C38.6426 51.4004 38.6074 51.0566 38.5371 50.7402C38.4668 50.4238 38.3555 50.1484 38.2031 49.9141C38.0547 49.6758 37.8633 49.4902 37.6289 49.3574C37.3945 49.2246 37.1133 49.1582 36.7852 49.1582C36.4492 49.1582 36.1621 49.2148 35.9238 49.3281C35.6895 49.4375 35.4941 49.584 35.3379 49.7676C35.1855 49.9473 35.0645 50.1445 34.9746 50.3594C34.8848 50.5742 34.8184 50.7852 34.7754 50.9922V52.8145C34.8418 53.1074 34.957 53.3828 35.1211 53.6406C35.2852 53.8984 35.5059 54.1074 35.7832 54.2676C36.0605 54.4238 36.3984 54.502 36.7969 54.502C37.1172 54.502 37.3926 54.4355 37.623 54.3027C37.8574 54.1699 38.0488 53.9863 38.1973 53.752C38.3496 53.5176 38.4609 53.2422 38.5312 52.9258C38.6055 52.6094 38.6426 52.2656 38.6426 51.8945ZM43.3535 55.1172C42.9395 55.1172 42.5586 55.041 42.2109 54.8887C41.8672 54.7363 41.5664 54.5215 41.3086 54.2441C41.0547 53.9668 40.8574 53.6387 40.7168 53.2598C40.5801 52.877 40.5117 52.459 40.5117 52.0059V51.7539C40.5117 51.2656 40.584 50.8242 40.7285 50.4297C40.873 50.0352 41.0723 49.6973 41.3262 49.416C41.5801 49.1348 41.8691 48.9199 42.1934 48.7715C42.5215 48.6191 42.8652 48.543 43.2246 48.543C43.627 48.543 43.9844 48.6152 44.2969 48.7598C44.6094 48.9004 44.8711 49.1016 45.082 49.3633C45.2969 49.6211 45.459 49.9277 45.5684 50.2832C45.6777 50.6348 45.7324 51.0234 45.7324 51.4492V51.877H40.9336V51.2793H45.0352V51.1973C45.0273 50.8418 44.9551 50.5098 44.8184 50.2012C44.6855 49.8887 44.4863 49.6348 44.2207 49.4395C43.9551 49.2441 43.623 49.1465 43.2246 49.1465C42.9277 49.1465 42.6543 49.209 42.4043 49.334C42.1582 49.459 41.9453 49.6387 41.7656 49.873C41.5898 50.1035 41.4531 50.3789 41.3555 50.6992C41.2617 51.0156 41.2148 51.3672 41.2148 51.7539V52.0059C41.2148 52.3574 41.2656 52.6855 41.3672 52.9902C41.4727 53.291 41.6211 53.5566 41.8125 53.7871C42.0078 54.0176 42.2383 54.1973 42.5039 54.3262C42.7695 54.4551 43.0625 54.5195 43.3828 54.5195C43.7578 54.5195 44.0898 54.4512 44.3789 54.3145C44.668 54.1738 44.9277 53.9531 45.1582 53.6523L45.5977 53.9922C45.4609 54.1953 45.2891 54.3828 45.082 54.5547C44.8789 54.7266 44.6348 54.8633 44.3496 54.9648C44.0645 55.0664 43.7324 55.1172 43.3535 55.1172Z" fill="black"/>
<rect x="15" y="12" width="18" height="13" rx="3" fill="#ED272A"/>
<path d="M25.5 18.3349L21 20.5V16.1699L25.5 18.3349Z" fill="white"/>
</svg>
