<svg width="47" height="58" viewBox="0 0 47 58" fill="none" xmlns="http://www.w3.org/2000/svg">
<circle cx="23.5" cy="18" r="18" fill="#D9D9D9"/>
<path d="M3.31641 48.6602V49.2344H0.140625V48.6602H3.31641ZM1.30664 47.0312H2.00391V53.459C2.00391 53.752 2.04297 53.9727 2.12109 54.1211C2.19922 54.2695 2.30078 54.3691 2.42578 54.4199C2.55078 54.4707 2.68555 54.4961 2.83008 54.4961C2.93555 54.4961 3.03711 54.4902 3.13477 54.4785C3.23242 54.4629 3.32031 54.4473 3.39844 54.4316L3.42773 55.0234C3.3418 55.0508 3.23047 55.0723 3.09375 55.0879C2.95703 55.1074 2.82031 55.1172 2.68359 55.1172C2.41406 55.1172 2.17578 55.0684 1.96875 54.9707C1.76172 54.8691 1.59961 54.6973 1.48242 54.4551C1.36523 54.209 1.30664 53.875 1.30664 53.4531V47.0312ZM6.54492 53.5176L8.07422 48.6602H8.56641L8.27344 49.9668L6.67383 55H6.18164L6.54492 53.5176ZM4.95703 48.6602L6.29883 53.5469L6.58594 55H6.07617L4.23633 48.6602H4.95703ZM10.4707 53.5293L11.7773 48.6602H12.498L10.6582 55H10.1543L10.4707 53.5293ZM8.66602 48.6602L10.1719 53.4766L10.5527 55H10.0605L8.42578 49.9609L8.15039 48.6602H8.66602ZM14.625 48.6602V55H13.9277V48.6602H14.625ZM13.8047 46.8262C13.8047 46.6934 13.8457 46.582 13.9277 46.4922C14.0137 46.3984 14.1309 46.3516 14.2793 46.3516C14.4277 46.3516 14.5449 46.3984 14.6309 46.4922C14.7207 46.582 14.7656 46.6934 14.7656 46.8262C14.7656 46.9551 14.7207 47.0664 14.6309 47.1602C14.5449 47.25 14.4277 47.2949 14.2793 47.2949C14.1309 47.2949 14.0137 47.25 13.9277 47.1602C13.8457 47.0664 13.8047 46.9551 13.8047 46.8262ZM18.9375 48.6602V49.2344H15.7617V48.6602H18.9375ZM16.9277 47.0312H17.625V53.459C17.625 53.752 17.6641 53.9727 17.7422 54.1211C17.8203 54.2695 17.9219 54.3691 18.0469 54.4199C18.1719 54.4707 18.3066 54.4961 18.4512 54.4961C18.5566 54.4961 18.6582 54.4902 18.7559 54.4785C18.8535 54.4629 18.9414 54.4473 19.0195 54.4316L19.0488 55.0234C18.9629 55.0508 18.8516 55.0723 18.7148 55.0879C18.5781 55.1074 18.4414 55.1172 18.3047 55.1172C18.0352 55.1172 17.7969 55.0684 17.5898 54.9707C17.3828 54.8691 17.2207 54.6973 17.1035 54.4551C16.9863 54.209 16.9277 53.875 16.9277 53.4531V47.0312ZM22.7461 54.5137C23.043 54.5137 23.3203 54.459 23.5781 54.3496C23.8398 54.2363 24.0547 54.0703 24.2227 53.8516C24.3945 53.6289 24.4922 53.3574 24.5156 53.0371H25.1836C25.1641 53.4395 25.041 53.7988 24.8145 54.1152C24.5918 54.4277 24.2988 54.6738 23.9355 54.8535C23.5762 55.0293 23.1797 55.1172 22.7461 55.1172C22.3047 55.1172 21.9141 55.0371 21.5742 54.877C21.2383 54.7168 20.957 54.4941 20.7305 54.209C20.5039 53.9199 20.332 53.584 20.2148 53.2012C20.1016 52.8145 20.0449 52.3984 20.0449 51.9531V51.707C20.0449 51.2617 20.1016 50.8477 20.2148 50.4648C20.332 50.0781 20.5039 49.7422 20.7305 49.457C20.957 49.168 21.2383 48.9434 21.5742 48.7832C21.9102 48.623 22.2988 48.543 22.7402 48.543C23.1934 48.543 23.5996 48.6348 23.959 48.8184C24.3223 49.002 24.6113 49.2617 24.8262 49.5977C25.0449 49.9336 25.1641 50.332 25.1836 50.793H24.5156C24.4961 50.4531 24.4062 50.1602 24.2461 49.9141C24.0859 49.668 23.875 49.4785 23.6133 49.3457C23.3516 49.2129 23.0605 49.1465 22.7402 49.1465C22.3809 49.1465 22.0742 49.2168 21.8203 49.3574C21.5664 49.4941 21.3594 49.6836 21.1992 49.9258C21.043 50.1641 20.9277 50.4375 20.8535 50.7461C20.7793 51.0508 20.7422 51.3711 20.7422 51.707V51.9531C20.7422 52.293 20.7773 52.6172 20.8477 52.9258C20.9219 53.2305 21.0371 53.502 21.1934 53.7402C21.3535 53.9785 21.5605 54.168 21.8145 54.3086C22.0723 54.4453 22.3828 54.5137 22.7461 54.5137ZM27.293 46V55H26.5957V46H27.293ZM27.1348 51.4375L26.8242 51.2617C26.8477 50.8867 26.9238 50.5352 27.0527 50.207C27.1816 49.8789 27.3555 49.5898 27.5742 49.3398C27.7969 49.0898 28.0566 48.8945 28.3535 48.7539C28.6543 48.6133 28.9863 48.543 29.3496 48.543C29.666 48.543 29.9492 48.5859 30.1992 48.6719C30.4492 48.7578 30.6621 48.8945 30.8379 49.082C31.0137 49.2695 31.1465 49.5098 31.2363 49.8027C31.3301 50.0957 31.377 50.4531 31.377 50.875V55H30.6738V50.8691C30.6738 50.4316 30.6133 50.0898 30.4922 49.8438C30.3711 49.5938 30.1992 49.416 29.9766 49.3105C29.7539 49.2051 29.4902 49.1523 29.1855 49.1523C28.8496 49.1523 28.5547 49.2266 28.3008 49.375C28.0508 49.5195 27.8398 49.709 27.668 49.9434C27.5 50.1738 27.3711 50.4219 27.2812 50.6875C27.1914 50.9492 27.1426 51.1992 27.1348 51.4375Z" fill="black"/>
<path d="M20.5 20.6533L17.5 21.7783V11.3086L20.5 9.80859V20.6533Z" fill="#9146FF" stroke="#9146FF"/>
<path d="M29.918 21.5L28.418 22H19.7568L21.0898 21.5H29.918Z" fill="#9146FF" stroke="#9146FF"/>
<path d="M32.5 9.5V20.5H21.5V9.5H32.5Z" fill="white" stroke="#9146FF"/>
<mask id="path-6-inside-1_8_207" fill="white">
<path d="M25 12H26V16H25V12Z"/>
</mask>
<path d="M25 12H26V16H25V12Z" fill="white"/>
<path d="M25 12V11H24V12H25ZM26 12H27V11H26V12ZM26 16V17H27V16H26ZM25 16H24V17H25V16ZM25 12V13H26V12V11H25V12ZM26 12H25V16H26H27V12H26ZM26 16V15H25V16V17H26V16ZM25 16H26V12H25H24V16H25Z" fill="#9146FF" mask="url(#path-6-inside-1_8_207)"/>
<mask id="path-8-inside-2_8_207" fill="white">
<path d="M28 12H29V16H28V12Z"/>
</mask>
<path d="M28 12H29V16H28V12Z" fill="white"/>
<path d="M28 12V11H27V12H28ZM29 12H30V11H29V12ZM29 16V17H30V16H29ZM28 16H27V17H28V16ZM28 12V13H29V12V11H28V12ZM29 12H28V16H29H30V12H29ZM29 16V15H28V16V17H29V16ZM28 16H29V12H28H27V16H28Z" fill="#9146FF" mask="url(#path-8-inside-2_8_207)"/>
</svg>
