<svg width="82" height="25" viewBox="0 0 82 25" fill="none" xmlns="http://www.w3.org/2000/svg">
<rect width="82" height="25" rx="12.5" fill="#D9D9D9"/>
<line x1="14.3536" y1="13.6464" x2="17.3536" y2="16.6464" stroke="black"/>
<circle cx="12.5" cy="11.5" r="3" stroke="black"/>
<path d="M26.1982 8.64429L23.1221 17H22.3408L25.6978 8.11328H26.241L26.1982 8.64429ZM28.9937 17L25.9114 8.64429L25.8687 8.11328H26.4119L29.7749 17H28.9937ZM28.4443 13.8628V14.5098H23.7263V13.8628H28.4443ZM32.0088 8.11328V17H31.2581V8.11328H32.0088ZM38.6859 8.3125C38.8442 8.32083 39.0109 8.32917 39.1859 8.3375C39.3609 8.34583 39.5526 8.35 39.7609 8.35C39.8859 8.35 40.0984 8.35 40.3984 8.35C40.6984 8.35 41.0484 8.35 41.4484 8.35C41.8484 8.35 42.2651 8.35 42.6984 8.35C43.1317 8.35 43.5484 8.35 43.9484 8.35C44.3484 8.35 44.6984 8.35 44.9984 8.35C45.3067 8.35 45.5234 8.35 45.6484 8.35C45.8567 8.35 46.0359 8.34583 46.1859 8.3375C46.3442 8.32917 46.4901 8.32083 46.6234 8.3125V8.975C46.4901 8.96667 46.3484 8.9625 46.1984 8.9625C46.0567 8.95417 45.8734 8.95 45.6484 8.95C45.5234 8.95 45.3067 8.95 44.9984 8.95C44.6901 8.95 44.3317 8.95 43.9234 8.95C43.5151 8.95 43.0901 8.95 42.6484 8.95C42.2151 8.95 41.7984 8.95 41.3984 8.95C41.0067 8.95 40.6651 8.95 40.3734 8.95C40.0817 8.95 39.8776 8.95 39.7609 8.95C39.5526 8.95 39.3609 8.95417 39.1859 8.9625C39.0109 8.9625 38.8442 8.96667 38.6859 8.975V8.3125ZM42.2359 12.1C42.2359 12.3833 42.2359 12.6917 42.2359 13.025C42.2359 13.35 42.2359 13.6708 42.2359 13.9875C42.2359 14.2958 42.2359 14.575 42.2359 14.825C42.2359 15.0667 42.2359 15.2417 42.2359 15.35C42.2359 15.65 42.3609 15.9042 42.6109 16.1125C42.8609 16.3125 43.2942 16.4125 43.9109 16.4125C44.5276 16.4125 45.0942 16.4 45.6109 16.375C46.1359 16.35 46.6734 16.3042 47.2234 16.2375L47.1984 16.9C46.8401 16.925 46.4817 16.95 46.1234 16.975C45.7651 16.9917 45.3984 17.0042 45.0234 17.0125C44.6484 17.0292 44.2567 17.0375 43.8484 17.0375C43.3067 17.0375 42.8651 16.9792 42.5234 16.8625C42.1901 16.7375 41.9484 16.5625 41.7984 16.3375C41.6567 16.1125 41.5859 15.8542 41.5859 15.5625C41.5859 15.3208 41.5859 15.0583 41.5859 14.775C41.5859 14.4917 41.5859 14.1958 41.5859 13.8875C41.5859 13.5792 41.5859 13.2708 41.5859 12.9625C41.5859 12.6542 41.5859 12.3583 41.5859 12.075C41.5859 11.9667 41.5859 11.8 41.5859 11.575C41.5859 11.35 41.5859 11.1 41.5859 10.825C41.5859 10.55 41.5859 10.2708 41.5859 9.9875C41.5859 9.70417 41.5859 9.45 41.5859 9.225C41.5859 8.99167 41.5859 8.81667 41.5859 8.7L42.2359 8.7125C42.2359 8.82917 42.2359 9.00417 42.2359 9.2375C42.2359 9.4625 42.2359 9.72083 42.2359 10.0125C42.2359 10.2958 42.2359 10.5792 42.2359 10.8625C42.2359 11.1458 42.2359 11.4 42.2359 11.625C42.2359 11.8417 42.2359 12 42.2359 12.1ZM37.8609 11.8375C38.0276 11.8542 38.2067 11.8667 38.3984 11.875C38.5984 11.8833 38.7734 11.8875 38.9234 11.8875C39.0317 11.8875 39.2401 11.8875 39.5484 11.8875C39.8567 11.8875 40.2276 11.8875 40.6609 11.8875C41.0942 11.8875 41.5609 11.8875 42.0609 11.8875C42.5609 11.8875 43.0609 11.8875 43.5609 11.8875C44.0609 11.8875 44.5276 11.8875 44.9609 11.8875C45.4026 11.8875 45.7734 11.8875 46.0734 11.8875C46.3817 11.8875 46.5901 11.8875 46.6984 11.8875C46.7901 11.8875 46.8901 11.8875 46.9984 11.8875C47.1151 11.8792 47.2276 11.875 47.3359 11.875C47.4526 11.8667 47.5526 11.8583 47.6359 11.85V12.525C47.5109 12.5167 47.3609 12.5125 47.1859 12.5125C47.0109 12.5042 46.8526 12.5 46.7109 12.5C46.5942 12.5 46.3817 12.5 46.0734 12.5C45.7734 12.5 45.4026 12.5 44.9609 12.5C44.5276 12.5 44.0609 12.5 43.5609 12.5C43.0609 12.5 42.5609 12.5 42.0609 12.5C41.5609 12.5 41.0942 12.5 40.6609 12.5C40.2276 12.5 39.8567 12.5 39.5484 12.5C39.2401 12.5 39.0317 12.5 38.9234 12.5C38.7734 12.5 38.5984 12.5042 38.3984 12.5125C38.2067 12.5125 38.0276 12.5208 37.8609 12.5375V11.8375ZM50.1984 11.8125C50.3067 11.8208 50.4359 11.8292 50.5859 11.8375C50.7442 11.8458 50.9234 11.8542 51.1234 11.8625C51.3234 11.8625 51.5442 11.8625 51.7859 11.8625C51.8692 11.8625 52.0401 11.8625 52.2984 11.8625C52.5651 11.8625 52.8859 11.8625 53.2609 11.8625C53.6442 11.8625 54.0567 11.8625 54.4984 11.8625C54.9401 11.8625 55.3817 11.8625 55.8234 11.8625C56.2734 11.8625 56.6942 11.8625 57.0859 11.8625C57.4859 11.8625 57.8276 11.8625 58.1109 11.8625C58.3942 11.8625 58.5942 11.8625 58.7109 11.8625C59.0359 11.8625 59.2984 11.8583 59.4984 11.85C59.7067 11.8333 59.8692 11.8208 59.9859 11.8125V12.5875C59.8692 12.5792 59.6984 12.5708 59.4734 12.5625C59.2567 12.5542 59.0067 12.55 58.7234 12.55C58.6067 12.55 58.4026 12.55 58.1109 12.55C57.8276 12.55 57.4901 12.55 57.0984 12.55C56.7067 12.55 56.2859 12.55 55.8359 12.55C55.3942 12.55 54.9526 12.55 54.5109 12.55C54.0692 12.55 53.6567 12.55 53.2734 12.55C52.8984 12.55 52.5776 12.55 52.3109 12.55C52.0442 12.55 51.8692 12.55 51.7859 12.55C51.4442 12.55 51.1359 12.5542 50.8609 12.5625C50.5942 12.5625 50.3734 12.5708 50.1984 12.5875V11.8125ZM69.3609 8.1875C69.4609 8.32083 69.5817 8.49583 69.7234 8.7125C69.8651 8.92917 70.0067 9.15833 70.1484 9.4C70.2901 9.64167 70.4067 9.8625 70.4984 10.0625L69.9984 10.3C69.9067 10.1083 69.7984 9.9 69.6734 9.675C69.5484 9.44167 69.4192 9.21667 69.2859 9C69.1526 8.775 69.0192 8.57917 68.8859 8.4125L69.3609 8.1875ZM70.7984 7.5875C70.8984 7.72083 71.0192 7.89583 71.1609 8.1125C71.3109 8.32917 71.4567 8.55833 71.5984 8.8C71.7484 9.03333 71.8734 9.25 71.9734 9.45L71.4734 9.6875C71.3817 9.49583 71.2692 9.2875 71.1359 9.0625C71.0109 8.8375 70.8776 8.61667 70.7359 8.4C70.5942 8.18333 70.4567 7.9875 70.3234 7.8125L70.7984 7.5875ZM65.3234 16.1C65.3234 16.0083 65.3234 15.7917 65.3234 15.45C65.3234 15.1083 65.3234 14.6917 65.3234 14.2C65.3234 13.7083 65.3234 13.1875 65.3234 12.6375C65.3234 12.0875 65.3234 11.5542 65.3234 11.0375C65.3234 10.5125 65.3234 10.05 65.3234 9.65C65.3234 9.25 65.3234 8.9625 65.3234 8.7875C65.3234 8.6375 65.3151 8.45 65.2984 8.225C65.2901 7.99167 65.2734 7.78333 65.2484 7.6H66.0484C66.0317 7.775 66.0151 7.98333 65.9984 8.225C65.9817 8.45833 65.9734 8.64583 65.9734 8.7875C65.9734 9.17083 65.9734 9.60833 65.9734 10.1C65.9734 10.5833 65.9734 11.0875 65.9734 11.6125C65.9734 12.1375 65.9734 12.6542 65.9734 13.1625C65.9817 13.6625 65.9859 14.125 65.9859 14.55C65.9859 14.9667 65.9859 15.3167 65.9859 15.6C65.9859 15.875 65.9859 16.0417 65.9859 16.1C65.9859 16.2417 65.9859 16.3958 65.9859 16.5625C65.9859 16.7208 65.9901 16.875 65.9984 17.025C66.0151 17.175 66.0276 17.3125 66.0359 17.4375H65.2734C65.2901 17.2625 65.3026 17.0542 65.3109 16.8125C65.3192 16.5625 65.3234 16.325 65.3234 16.1ZM65.8359 10.9125C66.2442 11.0375 66.6901 11.1875 67.1734 11.3625C67.6651 11.5292 68.1609 11.7125 68.6609 11.9125C69.1692 12.1042 69.6567 12.3 70.1234 12.5C70.5901 12.7 71.0067 12.8917 71.3734 13.075L71.0984 13.7375C70.7401 13.5375 70.3317 13.3333 69.8734 13.125C69.4151 12.9167 68.9401 12.7167 68.4484 12.525C67.9567 12.3333 67.4817 12.1583 67.0234 12C66.5734 11.8417 66.1776 11.7125 65.8359 11.6125V10.9125Z" fill="black"/>
</svg>
