<svg width="20" height="10" viewBox="0 0 20 10" fill="none" xmlns="http://www.w3.org/2000/svg">
<path d="M0.710044 7.85H8.13004V8.56H0.710044V7.85ZM4.39659e-05 0.639999H8.85004V1.35H4.39659e-05V0.639999ZM0.310044 2.35H1.04004V9.19H0.310044V2.35ZM7.83004 2.35H8.56004V9.16H7.83004V2.35ZM4.00004 0.859999H4.76004V2.79H4.00004V0.859999ZM4.05004 2.74H4.72004V6.7H4.05004V2.74ZM2.63004 5.01V6.33H6.15004V5.01H2.63004ZM2.63004 3.1V4.41H6.15004V3.1H2.63004ZM1.99004 2.47H6.81004V6.97H1.99004V2.47ZM14.13 -1.07288e-06L14.86 0.129999C14.6 0.603332 14.2734 1.08333 13.88 1.57C13.4934 2.05667 13.0334 2.51 12.5 2.93C12.4334 2.85 12.3467 2.77 12.24 2.69C12.1334 2.60333 12.0334 2.53667 11.94 2.49C12.2867 2.25 12.6 1.98667 12.88 1.7C13.16 1.41333 13.4034 1.12667 13.61 0.839999C13.8234 0.546666 13.9967 0.266666 14.13 -1.07288e-06ZM14.19 0.629999H16.6V1.22H13.72L14.19 0.629999ZM13.48 2.51V3.65H17.92V2.51H13.48ZM12.79 1.96H18.64V4.2H12.79V1.96ZM15.32 2.19H16V3.89H15.32V2.19ZM15.35 3.7L15.94 3.94C15.6667 4.19333 15.3434 4.43667 14.97 4.67C14.6034 4.90333 14.2134 5.11667 13.8 5.31C13.3934 5.50333 12.9967 5.67 12.61 5.81C12.5834 5.76333 12.5434 5.70667 12.49 5.64C12.4367 5.57333 12.38 5.51 12.32 5.45C12.2667 5.38333 12.2167 5.33 12.17 5.29C12.5567 5.17 12.9467 5.03 13.34 4.87C13.74 4.71 14.1134 4.53 14.46 4.33C14.8134 4.13 15.11 3.92 15.35 3.7ZM14.3 4.77L14.8 4.46C15.18 4.73333 15.4867 5.04 15.72 5.38C15.96 5.72 16.1367 6.07 16.25 6.43C16.3634 6.78333 16.4234 7.12333 16.43 7.45C16.4367 7.77 16.3934 8.05667 16.3 8.31C16.2067 8.56333 16.0734 8.75333 15.9 8.88C15.7534 9 15.6067 9.08 15.46 9.12C15.3134 9.16667 15.14 9.19333 14.94 9.2C14.8334 9.2 14.71 9.19667 14.57 9.19C14.4367 9.18333 14.3 9.17667 14.16 9.17C14.1534 9.08333 14.1367 8.97667 14.11 8.85C14.0834 8.73 14.04 8.62 13.98 8.52C14.14 8.54 14.29 8.55333 14.43 8.56C14.5767 8.56667 14.6967 8.57 14.79 8.57C14.9167 8.57 15.0267 8.56 15.12 8.54C15.22 8.52 15.3134 8.47333 15.4 8.4C15.5534 8.28667 15.6567 8.09667 15.71 7.83C15.77 7.55667 15.7667 7.24333 15.7 6.89C15.6334 6.53 15.4867 6.16667 15.26 5.8C15.0334 5.42667 14.7134 5.08333 14.3 4.77ZM15.2 5.17L15.65 5.48C15.4234 5.69333 15.1367 5.91 14.79 6.13C14.45 6.35 14.0934 6.55667 13.72 6.75C13.3467 6.93667 12.99 7.09333 12.65 7.22C12.6034 7.14667 12.5434 7.06 12.47 6.96C12.4034 6.86 12.3334 6.77667 12.26 6.71C12.5934 6.61 12.9467 6.47667 13.32 6.31C13.6934 6.14333 14.0467 5.96 14.38 5.76C14.72 5.56 14.9934 5.36333 15.2 5.17ZM15.72 6.25L16.22 6.6C15.94 6.89333 15.59 7.19 15.17 7.49C14.75 7.78333 14.3067 8.05667 13.84 8.31C13.3734 8.56333 12.9234 8.77 12.49 8.93C12.4434 8.84333 12.38 8.74667 12.3 8.64C12.2267 8.53333 12.15 8.44667 12.07 8.38C12.39 8.27333 12.7234 8.14333 13.07 7.99C13.4167 7.83667 13.7534 7.66333 14.08 7.47C14.4134 7.27667 14.72 7.07667 15 6.87C15.2867 6.66333 15.5267 6.45667 15.72 6.25ZM18.41 4.5L18.94 4.95C18.68 5.17667 18.39 5.40667 18.07 5.64C17.75 5.86667 17.4567 6.06 17.19 6.22L16.75 5.82C16.9234 5.70667 17.11 5.57333 17.31 5.42C17.5167 5.26667 17.7167 5.11 17.91 4.95C18.1034 4.79 18.27 4.64 18.41 4.5ZM16.46 3.81C16.6 4.44333 16.79 5.04667 17.03 5.62C17.27 6.18667 17.5634 6.69 17.91 7.13C18.2634 7.56333 18.66 7.90667 19.1 8.16C19.0467 8.20667 18.9867 8.26667 18.92 8.34C18.8534 8.40667 18.79 8.47667 18.73 8.55C18.6767 8.62333 18.63 8.69333 18.59 8.76C18.13 8.46 17.72 8.06667 17.36 7.58C17 7.09333 16.6967 6.54 16.45 5.92C16.2034 5.3 16 4.64 15.84 3.94L16.46 3.81ZM16.36 0.629999H16.52L16.66 0.589999L17.12 0.909999C16.96 1.18333 16.77 1.46333 16.55 1.75C16.3367 2.03 16.1334 2.26667 15.94 2.46C15.8867 2.39333 15.8167 2.31667 15.73 2.23C15.6434 2.14333 15.57 2.07667 15.51 2.03C15.67 1.85667 15.83 1.65333 15.99 1.42C16.15 1.18 16.2734 0.959999 16.36 0.759999V0.629999ZM11.75 0.039999L12.44 0.229999C12.2534 0.809999 12.03 1.38333 11.77 1.95C11.5167 2.51667 11.24 3.05333 10.94 3.56C10.64 4.06 10.3234 4.50333 9.99004 4.89C9.97004 4.83 9.93671 4.75333 9.89004 4.66C9.84338 4.56 9.79338 4.46333 9.74004 4.37C9.68671 4.27 9.64004 4.19 9.60004 4.13C9.89338 3.79 10.1734 3.40333 10.44 2.97C10.7067 2.53 10.95 2.06 11.17 1.56C11.3967 1.06 11.59 0.553332 11.75 0.039999ZM10.94 2.49L11.64 1.8L11.66 1.82V9.19H10.94V2.49Z" fill="black"/>
</svg>
